<svg width="512" height="512" viewBox="0 0 512 512" fill="none" xmlns="http://www.w3.org/2000/svg">
<rect width="512" height="512" rx="140" fill="url(#paint0_linear_1_60)"/>
<circle cx="255.5" cy="255.5" r="188.5" fill="url(#paint1_linear_1_60)"/>
<path d="M141.012 177.905C126.664 199.031 118.439 223.663 117.172 249.081C116.982 252.899 120.099 256 123.922 256V256C127.744 256 130.823 252.899 131.035 249.082C132.288 226.439 139.675 204.514 152.464 185.683C166.553 164.939 186.548 148.905 209.857 139.66C233.166 130.415 258.715 128.385 283.192 133.833C307.669 139.281 329.945 151.956 347.132 170.215C364.32 188.474 375.626 211.475 379.586 236.236C383.546 260.997 379.977 286.377 369.341 309.085C358.705 331.794 341.493 350.783 319.936 363.593C300.367 375.222 278.036 381.271 255.359 381.155C251.536 381.135 248.254 384.021 248.023 387.837V387.837C247.792 391.653 250.7 394.952 254.522 394.992C279.97 395.263 305.054 388.54 327.008 375.494C350.949 361.267 370.065 340.177 381.877 314.957C393.69 289.737 397.654 261.55 393.256 234.05C388.858 206.55 376.301 181.005 357.212 160.726C338.124 140.448 313.384 126.371 286.2 120.32C259.016 114.27 230.641 116.524 204.753 126.792C178.866 137.059 156.659 154.867 141.012 177.905Z" stroke="url(#paint2_linear_1_60)" stroke-width="51"/>
<defs>
<linearGradient id="paint0_linear_1_60" x1="256" y1="0" x2="256" y2="512" gradientUnits="userSpaceOnUse">
<stop stop-color="#FFE7E2"/>
<stop offset="1" stop-color="white"/>
</linearGradient>
<linearGradient id="paint1_linear_1_60" x1="255.5" y1="67" x2="255.5" y2="444" gradientUnits="userSpaceOnUse">
<stop stop-color="#FF7347" stop-opacity="0.15"/>
<stop offset="1" stop-color="#FFC700" stop-opacity="0.17"/>
</linearGradient>
<linearGradient id="paint2_linear_1_60" x1="256" y1="117" x2="256" y2="395" gradientUnits="userSpaceOnUse">
<stop stop-color="#FF7347"/>
<stop offset="1" stop-color="#FFC700"/>
</linearGradient>
</defs>
</svg>
