<svg width="2481" height="512" viewBox="0 0 2481 512" fill="none" xmlns="http://www.w3.org/2000/svg">
<rect width="2481" height="512" rx="99" fill="url(#paint0_linear_1_56)"/>
<circle cx="255.5" cy="255.5" r="188.5" fill="url(#paint1_linear_1_56)"/>
<path d="M141.012 177.905C126.664 199.031 118.439 223.663 117.172 249.081C116.982 252.899 120.099 256 123.922 256V256C127.744 256 130.823 252.899 131.035 249.082C132.288 226.439 139.675 204.514 152.464 185.683C166.553 164.939 186.548 148.905 209.857 139.66C233.166 130.415 258.715 128.385 283.192 133.833C307.669 139.281 329.945 151.956 347.132 170.215C364.32 188.474 375.626 211.475 379.586 236.236C383.546 260.997 379.977 286.377 369.341 309.085C358.705 331.794 341.493 350.783 319.936 363.593C300.367 375.222 278.036 381.271 255.359 381.155C251.536 381.135 248.254 384.021 248.023 387.837V387.837C247.792 391.653 250.7 394.952 254.522 394.992C279.97 395.263 305.054 388.54 327.008 375.494C350.949 361.267 370.065 340.177 381.877 314.957C393.69 289.737 397.654 261.55 393.256 234.05C388.858 206.55 376.301 181.005 357.212 160.726C338.124 140.448 313.384 126.371 286.2 120.32C259.016 114.27 230.641 116.524 204.753 126.792C178.866 137.059 156.659 154.867 141.012 177.905Z" stroke="url(#paint2_linear_1_56)" stroke-width="51"/>
<path d="M586.395 168.545V314H555.642V168.545H586.395ZM611.129 314V204.909H640.461V223.943H641.597C643.586 217.172 646.924 212.059 651.612 208.602C656.299 205.098 661.697 203.347 667.805 203.347C669.32 203.347 670.953 203.441 672.705 203.631C674.457 203.82 675.996 204.08 677.322 204.412V231.259C675.901 230.832 673.936 230.454 671.427 230.122C668.917 229.791 666.621 229.625 664.538 229.625C660.087 229.625 656.11 230.596 652.606 232.537C649.149 234.431 646.403 237.082 644.367 240.491C642.379 243.901 641.384 247.83 641.384 252.281V314H611.129ZM737.176 316.131C726.144 316.131 716.603 313.787 708.554 309.099C700.552 304.365 694.373 297.783 690.017 289.355C685.661 280.88 683.483 271.055 683.483 259.881C683.483 248.612 685.661 238.763 690.017 230.335C694.373 221.86 700.552 215.278 708.554 210.591C716.603 205.856 726.144 203.489 737.176 203.489C748.208 203.489 757.725 205.856 765.727 210.591C773.777 215.278 779.979 221.86 784.335 230.335C788.691 238.763 790.869 248.612 790.869 259.881C790.869 271.055 788.691 280.88 784.335 289.355C779.979 297.783 773.777 304.365 765.727 309.099C757.725 313.787 748.208 316.131 737.176 316.131ZM737.318 292.693C742.337 292.693 746.527 291.273 749.889 288.432C753.251 285.544 755.784 281.614 757.489 276.642C759.241 271.67 760.116 266.012 760.116 259.668C760.116 253.323 759.241 247.665 757.489 242.693C755.784 237.722 753.251 233.792 749.889 230.903C746.527 228.015 742.337 226.571 737.318 226.571C732.252 226.571 727.991 228.015 724.534 230.903C721.125 233.792 718.545 237.722 716.793 242.693C715.088 247.665 714.236 253.323 714.236 259.668C714.236 266.012 715.088 271.67 716.793 276.642C718.545 281.614 721.125 285.544 724.534 288.432C727.991 291.273 732.252 292.693 737.318 292.693ZM840.798 250.932V314H810.543V204.909H839.378V224.156H840.656C843.071 217.812 847.119 212.793 852.801 209.099C858.483 205.359 865.372 203.489 873.469 203.489C881.045 203.489 887.65 205.146 893.284 208.46C898.919 211.775 903.298 216.509 906.423 222.665C909.548 228.773 911.111 236.064 911.111 244.54V314H880.855V249.938C880.902 243.261 879.198 238.053 875.741 234.312C872.285 230.525 867.527 228.631 861.466 228.631C857.394 228.631 853.795 229.507 850.67 231.259C847.593 233.01 845.178 235.567 843.426 238.929C841.722 242.243 840.846 246.244 840.798 250.932ZM1115.48 241.273C1115.48 257.134 1112.47 270.629 1106.46 281.756C1100.49 292.883 1092.35 301.382 1082.03 307.253C1071.75 313.077 1060.2 315.989 1047.37 315.989C1034.44 315.989 1022.84 313.053 1012.57 307.182C1002.29 301.311 994.172 292.812 988.206 281.685C982.24 270.558 979.257 257.087 979.257 241.273C979.257 225.411 982.24 211.917 988.206 200.79C994.172 189.663 1002.29 181.187 1012.57 175.364C1022.84 169.492 1034.44 166.557 1047.37 166.557C1060.2 166.557 1071.75 169.492 1082.03 175.364C1092.35 181.187 1100.49 189.663 1106.46 200.79C1112.47 211.917 1115.48 225.411 1115.48 241.273ZM1084.3 241.273C1084.3 230.998 1082.76 222.333 1079.68 215.278C1076.65 208.223 1072.37 202.873 1066.83 199.227C1061.29 195.581 1054.8 193.759 1047.37 193.759C1039.93 193.759 1033.45 195.581 1027.91 199.227C1022.37 202.873 1018.06 208.223 1014.98 215.278C1011.95 222.333 1010.44 230.998 1010.44 241.273C1010.44 251.547 1011.95 260.212 1014.98 267.267C1018.06 274.322 1022.37 279.672 1027.91 283.318C1033.45 286.964 1039.93 288.787 1047.37 288.787C1054.8 288.787 1061.29 286.964 1066.83 283.318C1072.37 279.672 1076.65 274.322 1079.68 267.267C1082.76 260.212 1084.3 251.547 1084.3 241.273ZM1217.17 210.378C1216.6 204.649 1214.16 200.198 1209.85 197.026C1205.54 193.853 1199.69 192.267 1192.31 192.267C1187.29 192.267 1183.05 192.977 1179.59 194.398C1176.14 195.771 1173.49 197.688 1171.64 200.151C1169.84 202.613 1168.94 205.406 1168.94 208.531C1168.85 211.135 1169.39 213.408 1170.57 215.349C1171.81 217.291 1173.49 218.972 1175.62 220.392C1177.75 221.765 1180.21 222.973 1183 224.014C1185.8 225.009 1188.78 225.861 1191.95 226.571L1205.02 229.696C1211.37 231.116 1217.19 233.01 1222.49 235.378C1227.8 237.745 1232.39 240.657 1236.27 244.114C1240.15 247.57 1243.16 251.642 1245.29 256.33C1247.47 261.017 1248.58 266.391 1248.63 272.452C1248.58 281.353 1246.31 289.071 1241.81 295.605C1237.36 302.092 1230.92 307.134 1222.49 310.733C1214.11 314.284 1204 316.06 1192.17 316.06C1180.42 316.06 1170.2 314.26 1161.48 310.662C1152.82 307.063 1146.05 301.737 1141.17 294.682C1136.34 287.58 1133.81 278.796 1133.57 268.332H1163.33C1163.66 273.209 1165.06 277.281 1167.52 280.548C1170.03 283.768 1173.37 286.206 1177.53 287.864C1181.75 289.473 1186.51 290.278 1191.81 290.278C1197.02 290.278 1201.54 289.521 1205.38 288.006C1209.26 286.491 1212.26 284.384 1214.4 281.685C1216.53 278.986 1217.59 275.884 1217.59 272.381C1217.59 269.114 1216.62 266.367 1214.68 264.142C1212.79 261.917 1209.99 260.023 1206.3 258.46C1202.65 256.898 1198.18 255.477 1192.88 254.199L1177.04 250.222C1164.77 247.239 1155.09 242.575 1147.99 236.23C1140.89 229.885 1137.36 221.339 1137.41 210.591C1137.36 201.784 1139.7 194.09 1144.44 187.509C1149.22 180.927 1155.78 175.79 1164.11 172.097C1172.44 168.403 1181.91 166.557 1192.52 166.557C1203.32 166.557 1212.74 168.403 1220.79 172.097C1228.88 175.79 1235.18 180.927 1239.68 187.509C1244.18 194.09 1246.5 201.713 1246.64 210.378H1217.17ZM1443.94 219.469H1412.83C1412.26 215.444 1411.1 211.869 1409.35 208.744C1407.6 205.572 1405.35 202.873 1402.61 200.648C1399.86 198.422 1396.69 196.718 1393.09 195.534C1389.54 194.35 1385.68 193.759 1381.51 193.759C1373.98 193.759 1367.43 195.629 1361.84 199.369C1356.25 203.062 1351.92 208.46 1348.84 215.562C1345.76 222.617 1344.23 231.187 1344.23 241.273C1344.23 251.642 1345.76 260.354 1348.84 267.409C1351.97 274.464 1356.32 279.791 1361.91 283.389C1367.5 286.988 1373.96 288.787 1381.3 288.787C1385.42 288.787 1389.23 288.242 1392.73 287.153C1396.28 286.064 1399.43 284.478 1402.18 282.395C1404.93 280.264 1407.2 277.684 1409 274.653C1410.84 271.623 1412.12 268.167 1412.83 264.284L1443.94 264.426C1443.14 271.102 1441.12 277.542 1437.9 283.744C1434.73 289.9 1430.45 295.416 1425.05 300.293C1419.7 305.122 1413.31 308.957 1405.87 311.798C1398.49 314.592 1390.13 315.989 1380.8 315.989C1367.83 315.989 1356.23 313.053 1346 307.182C1335.82 301.311 1327.77 292.812 1321.85 281.685C1315.98 270.558 1313.05 257.087 1313.05 241.273C1313.05 225.411 1316.03 211.917 1322 200.79C1327.96 189.663 1336.06 181.187 1346.28 175.364C1356.51 169.492 1368.02 166.557 1380.8 166.557C1389.23 166.557 1397.04 167.741 1404.24 170.108C1411.48 172.475 1417.9 175.932 1423.49 180.477C1429.07 184.975 1433.62 190.491 1437.12 197.026C1440.67 203.56 1442.95 211.041 1443.94 219.469ZM1514.72 316.131C1503.68 316.131 1494.14 313.787 1486.09 309.099C1478.09 304.365 1471.91 297.783 1467.56 289.355C1463.2 280.88 1461.02 271.055 1461.02 259.881C1461.02 248.612 1463.2 238.763 1467.56 230.335C1471.91 221.86 1478.09 215.278 1486.09 210.591C1494.14 205.856 1503.68 203.489 1514.72 203.489C1525.75 203.489 1535.26 205.856 1543.27 210.591C1551.32 215.278 1557.52 221.86 1561.87 230.335C1566.23 238.763 1568.41 248.612 1568.41 259.881C1568.41 271.055 1566.23 280.88 1561.87 289.355C1557.52 297.783 1551.32 304.365 1543.27 309.099C1535.26 313.787 1525.75 316.131 1514.72 316.131ZM1514.86 292.693C1519.88 292.693 1524.07 291.273 1527.43 288.432C1530.79 285.544 1533.32 281.614 1535.03 276.642C1536.78 271.67 1537.66 266.012 1537.66 259.668C1537.66 253.323 1536.78 247.665 1535.03 242.693C1533.32 237.722 1530.79 233.792 1527.43 230.903C1524.07 228.015 1519.88 226.571 1514.86 226.571C1509.79 226.571 1505.53 228.015 1502.07 230.903C1498.66 233.792 1496.08 237.722 1494.33 242.693C1492.63 247.665 1491.77 253.323 1491.77 259.668C1491.77 266.012 1492.63 271.67 1494.33 276.642C1496.08 281.614 1498.66 285.544 1502.07 288.432C1505.53 291.273 1509.79 292.693 1514.86 292.693ZM1588.08 314V204.909H1616.92V224.156H1618.2C1620.47 217.764 1624.26 212.722 1629.56 209.028C1634.86 205.335 1641.21 203.489 1648.59 203.489C1656.07 203.489 1662.44 205.359 1667.7 209.099C1672.95 212.793 1676.46 217.812 1678.21 224.156H1679.35C1681.57 217.906 1685.6 212.911 1691.42 209.17C1697.29 205.383 1704.23 203.489 1712.23 203.489C1722.41 203.489 1730.67 206.732 1737.02 213.219C1743.41 219.658 1746.6 228.796 1746.6 240.634V314H1716.42V246.599C1716.42 240.539 1714.81 235.993 1711.59 232.963C1708.37 229.933 1704.35 228.418 1699.52 228.418C1694.02 228.418 1689.74 230.17 1686.66 233.673C1683.58 237.13 1682.04 241.699 1682.04 247.381V314H1652.71V245.96C1652.71 240.61 1651.17 236.348 1648.1 233.176C1645.07 230.004 1641.06 228.418 1636.09 228.418C1632.73 228.418 1629.7 229.27 1627 230.974C1624.35 232.632 1622.24 234.975 1620.68 238.006C1619.12 240.989 1618.34 244.492 1618.34 248.517V314H1588.08ZM1770.5 354.909V204.909H1800.33V223.233H1801.68C1803.01 220.297 1804.93 217.314 1807.44 214.284C1809.99 211.206 1813.31 208.65 1817.38 206.614C1821.5 204.53 1826.61 203.489 1832.72 203.489C1840.67 203.489 1848.01 205.572 1854.74 209.739C1861.46 213.858 1866.83 220.084 1870.86 228.418C1874.88 236.704 1876.9 247.097 1876.9 259.597C1876.9 271.765 1874.93 282.04 1871 290.42C1867.12 298.754 1861.82 305.075 1855.09 309.384C1848.42 313.645 1840.93 315.776 1832.65 315.776C1826.78 315.776 1821.78 314.805 1817.66 312.864C1813.59 310.922 1810.25 308.484 1807.65 305.548C1805.04 302.565 1803.06 299.559 1801.68 296.528H1800.76V354.909H1770.5ZM1800.12 259.455C1800.12 265.941 1801.02 271.599 1802.82 276.429C1804.62 281.259 1807.22 285.023 1810.63 287.722C1814.04 290.373 1818.18 291.699 1823.06 291.699C1827.98 291.699 1832.15 290.349 1835.56 287.651C1838.97 284.904 1841.55 281.116 1843.3 276.287C1845.1 271.41 1846 265.799 1846 259.455C1846 253.157 1845.12 247.617 1843.37 242.835C1841.62 238.053 1839.04 234.312 1835.63 231.614C1832.22 228.915 1828.03 227.565 1823.06 227.565C1818.14 227.565 1813.97 228.867 1810.56 231.472C1807.2 234.076 1804.62 237.769 1802.82 242.551C1801.02 247.333 1800.12 252.968 1800.12 259.455ZM1928.17 316.06C1921.21 316.06 1915.01 314.852 1909.57 312.438C1904.12 309.975 1899.81 306.353 1896.64 301.571C1893.51 296.741 1891.95 290.728 1891.95 283.531C1891.95 277.471 1893.07 272.381 1895.29 268.261C1897.52 264.142 1900.55 260.828 1904.38 258.318C1908.22 255.809 1912.57 253.915 1917.45 252.636C1922.37 251.358 1927.53 250.458 1932.93 249.938C1939.28 249.275 1944.39 248.659 1948.27 248.091C1952.16 247.475 1954.97 246.576 1956.73 245.392C1958.48 244.208 1959.35 242.456 1959.35 240.136V239.71C1959.35 235.212 1957.93 231.732 1955.09 229.27C1952.3 226.808 1948.32 225.577 1943.16 225.577C1937.71 225.577 1933.38 226.784 1930.16 229.199C1926.94 231.566 1924.81 234.549 1923.77 238.148L1895.79 235.875C1897.21 229.246 1900 223.517 1904.17 218.688C1908.33 213.811 1913.71 210.07 1920.29 207.466C1926.92 204.814 1934.59 203.489 1943.3 203.489C1949.36 203.489 1955.16 204.199 1960.7 205.619C1966.29 207.04 1971.24 209.241 1975.55 212.224C1979.9 215.207 1983.33 219.043 1985.84 223.73C1988.35 228.37 1989.61 233.934 1989.61 240.42V314H1960.92V298.872H1960.06C1958.31 302.281 1955.97 305.288 1953.03 307.892C1950.1 310.449 1946.57 312.461 1942.45 313.929C1938.33 315.349 1933.57 316.06 1928.17 316.06ZM1936.84 295.179C1941.29 295.179 1945.22 294.303 1948.63 292.551C1952.04 290.752 1954.71 288.337 1956.65 285.307C1958.6 282.277 1959.57 278.844 1959.57 275.009V263.432C1958.62 264.047 1957.32 264.616 1955.66 265.136C1954.05 265.61 1952.23 266.06 1950.19 266.486C1948.16 266.865 1946.12 267.22 1944.08 267.551C1942.05 267.835 1940.2 268.096 1938.54 268.332C1934.99 268.853 1931.89 269.682 1929.24 270.818C1926.59 271.955 1924.53 273.493 1923.06 275.435C1921.59 277.329 1920.86 279.696 1920.86 282.537C1920.86 286.656 1922.35 289.805 1925.33 291.983C1928.36 294.114 1932.2 295.179 1936.84 295.179ZM2043.34 250.932V314H2013.08V204.909H2041.92V224.156H2043.2C2045.61 217.812 2049.66 212.793 2055.34 209.099C2061.02 205.359 2067.91 203.489 2076.01 203.489C2083.58 203.489 2090.19 205.146 2095.82 208.46C2101.46 211.775 2105.84 216.509 2108.96 222.665C2112.09 228.773 2113.65 236.064 2113.65 244.54V314H2083.39V249.938C2083.44 243.261 2081.74 238.053 2078.28 234.312C2074.82 230.525 2070.07 228.631 2064 228.631C2059.93 228.631 2056.33 229.507 2053.21 231.259C2050.13 233.01 2047.72 235.567 2045.97 238.929C2044.26 242.243 2043.38 246.244 2043.34 250.932ZM2137.5 314V204.909H2167.75V314H2137.5ZM2152.69 190.847C2148.2 190.847 2144.34 189.355 2141.12 186.372C2137.95 183.342 2136.36 179.72 2136.36 175.506C2136.36 171.339 2137.95 167.764 2141.12 164.781C2144.34 161.751 2148.2 160.236 2152.69 160.236C2157.19 160.236 2161.03 161.751 2164.2 164.781C2167.42 167.764 2169.03 171.339 2169.03 175.506C2169.03 179.72 2167.42 183.342 2164.2 186.372C2161.03 189.355 2157.19 190.847 2152.69 190.847ZM2241.28 316.131C2230.25 316.131 2220.7 313.787 2212.66 309.099C2204.65 304.365 2198.47 297.783 2194.12 289.355C2189.76 280.88 2187.58 271.055 2187.58 259.881C2187.58 248.612 2189.76 238.763 2194.12 230.335C2198.47 221.86 2204.65 215.278 2212.66 210.591C2220.7 205.856 2230.25 203.489 2241.28 203.489C2252.31 203.489 2261.83 205.856 2269.83 210.591C2277.88 215.278 2284.08 221.86 2288.44 230.335C2292.79 238.763 2294.97 248.612 2294.97 259.881C2294.97 271.055 2292.79 280.88 2288.44 289.355C2284.08 297.783 2277.88 304.365 2269.83 309.099C2261.83 313.787 2252.31 316.131 2241.28 316.131ZM2241.42 292.693C2246.44 292.693 2250.63 291.273 2253.99 288.432C2257.35 285.544 2259.89 281.614 2261.59 276.642C2263.34 271.67 2264.22 266.012 2264.22 259.668C2264.22 253.323 2263.34 247.665 2261.59 242.693C2259.89 237.722 2257.35 233.792 2253.99 230.903C2250.63 228.015 2246.44 226.571 2241.42 226.571C2236.35 226.571 2232.09 228.015 2228.64 230.903C2225.23 233.792 2222.65 237.722 2220.89 242.693C2219.19 247.665 2218.34 253.323 2218.34 259.668C2218.34 266.012 2219.19 271.67 2220.89 276.642C2222.65 281.614 2225.23 285.544 2228.64 288.432C2232.09 291.273 2236.35 292.693 2241.42 292.693ZM2344.9 250.932V314H2314.64V204.909H2343.48V224.156H2344.76C2347.17 217.812 2351.22 212.793 2356.9 209.099C2362.58 205.359 2369.47 203.489 2377.57 203.489C2385.15 203.489 2391.75 205.146 2397.39 208.46C2403.02 211.775 2407.4 216.509 2410.52 222.665C2413.65 228.773 2415.21 236.064 2415.21 244.54V314H2384.96V249.938C2385 243.261 2383.3 238.053 2379.84 234.312C2376.39 230.525 2371.63 228.631 2365.57 228.631C2361.5 228.631 2357.9 229.507 2354.77 231.259C2351.69 233.01 2349.28 235.567 2347.53 238.929C2345.82 242.243 2344.95 246.244 2344.9 250.932Z" fill="url(#paint3_linear_1_56)"/>
<rect x="2257" y="331" width="170" height="61" rx="30.5" fill="url(#paint4_linear_1_56)"/>
<path d="M2299.29 375V349.406H2308.25C2311.36 349.406 2313.71 350.004 2315.32 351.199C2316.92 352.383 2317.72 354.123 2317.72 356.42C2317.72 357.674 2317.4 358.781 2316.76 359.742C2316.11 360.691 2315.22 361.389 2314.07 361.834C2315.38 362.162 2316.41 362.824 2317.16 363.82C2317.92 364.816 2318.3 366.035 2318.3 367.477C2318.3 369.938 2317.52 371.801 2315.95 373.066C2314.38 374.332 2312.14 374.977 2309.23 375H2299.29ZM2304.56 363.855V370.764H2309.08C2310.32 370.764 2311.29 370.471 2311.98 369.885C2312.68 369.287 2313.03 368.467 2313.03 367.424C2313.03 365.08 2311.82 363.891 2309.39 363.855H2304.56ZM2304.56 360.129H2308.46C2311.12 360.082 2312.45 359.021 2312.45 356.947C2312.45 355.787 2312.11 354.955 2311.43 354.451C2310.76 353.936 2309.7 353.678 2308.25 353.678H2304.56V360.129ZM2337.68 363.908H2327.55V370.764H2339.43V375H2322.28V349.406H2339.4V353.678H2327.55V359.777H2337.68V363.908ZM2362.14 353.678H2354.3V375H2349.03V353.678H2341.3V349.406H2362.14V353.678ZM2377.51 369.727H2368.26L2366.5 375H2360.9L2370.42 349.406H2375.31L2384.89 375H2379.28L2377.51 369.727ZM2369.69 365.455H2376.08L2372.87 355.875L2369.69 365.455Z" fill="white"/>
<defs>
<linearGradient id="paint0_linear_1_56" x1="1240.5" y1="0" x2="1240.5" y2="512" gradientUnits="userSpaceOnUse">
<stop stop-color="#FFE7E2"/>
<stop offset="1" stop-color="white"/>
</linearGradient>
<linearGradient id="paint1_linear_1_56" x1="255.5" y1="67" x2="255.5" y2="444" gradientUnits="userSpaceOnUse">
<stop stop-color="#FF7347" stop-opacity="0.15"/>
<stop offset="1" stop-color="#FFC700" stop-opacity="0.17"/>
</linearGradient>
<linearGradient id="paint2_linear_1_56" x1="256" y1="117" x2="256" y2="395" gradientUnits="userSpaceOnUse">
<stop stop-color="#FF7347"/>
<stop offset="1" stop-color="#FFC700"/>
</linearGradient>
<linearGradient id="paint3_linear_1_56" x1="1485" y1="120" x2="1485" y2="362" gradientUnits="userSpaceOnUse">
<stop stop-color="#FF7347"/>
<stop offset="1" stop-color="#FFC700"/>
</linearGradient>
<linearGradient id="paint4_linear_1_56" x1="2257" y1="361" x2="2427" y2="361" gradientUnits="userSpaceOnUse">
<stop stop-color="#FFC700"/>
<stop offset="1" stop-color="#FF7A00"/>
</linearGradient>
</defs>
</svg>
