<svg width="2481" height="512" viewBox="0 0 2481 512" fill="none" xmlns="http://www.w3.org/2000/svg">
<rect width="2481" height="512" rx="99" fill="url(#paint0_linear_1_56)"/>
<circle cx="255.5" cy="255.5" r="188.5" fill="url(#paint1_linear_1_56)"/>
<path d="M141.012 177.905C126.664 199.031 118.439 223.663 117.172 249.081C116.982 252.899 120.099 256 123.922 256V256C127.744 256 130.823 252.899 131.035 249.082C132.288 226.439 139.675 204.514 152.464 185.683C166.553 164.939 186.548 148.905 209.857 139.66C233.166 130.415 258.715 128.385 283.192 133.833C307.669 139.281 329.945 151.956 347.132 170.215C364.32 188.474 375.626 211.475 379.586 236.236C383.546 260.997 379.977 286.377 369.341 309.085C358.705 331.794 341.493 350.783 319.936 363.593C300.367 375.222 278.036 381.271 255.359 381.155C251.536 381.135 248.254 384.021 248.023 387.837V387.837C247.792 391.653 250.7 394.952 254.522 394.992C279.97 395.263 305.054 388.54 327.008 375.494C350.949 361.267 370.065 340.177 381.877 314.957C393.69 289.737 397.654 261.55 393.256 234.05C388.858 206.55 376.301 181.005 357.212 160.726C338.124 140.448 313.384 126.371 286.2 120.32C259.016 114.27 230.641 116.524 204.753 126.792C178.866 137.059 156.659 154.867 141.012 177.905Z" stroke="url(#paint2_linear_1_56)" stroke-width="51"/>
<path d="M586.395 183.545V329H555.642V183.545H586.395ZM611.129 329V219.909H640.461V238.943H641.597C643.586 232.172 646.924 227.059 651.612 223.602C656.299 220.098 661.697 218.347 667.805 218.347C669.32 218.347 670.953 218.441 672.705 218.631C674.457 218.82 675.996 219.08 677.322 219.412V246.259C675.901 245.832 673.936 245.454 671.427 245.122C668.917 244.791 666.621 244.625 664.538 244.625C660.087 244.625 656.11 245.596 652.606 247.537C649.149 249.431 646.403 252.082 644.367 255.491C642.379 258.901 641.384 262.83 641.384 267.281V329H611.129ZM737.176 331.131C726.144 331.131 716.603 328.787 708.554 324.099C700.552 319.365 694.373 312.783 690.017 304.355C685.661 295.88 683.483 286.055 683.483 274.881C683.483 263.612 685.661 253.763 690.017 245.335C694.373 236.86 700.552 230.278 708.554 225.591C716.603 220.856 726.144 218.489 737.176 218.489C748.208 218.489 757.725 220.856 765.727 225.591C773.777 230.278 779.979 236.86 784.335 245.335C788.691 253.763 790.869 263.612 790.869 274.881C790.869 286.055 788.691 295.88 784.335 304.355C779.979 312.783 773.777 319.365 765.727 324.099C757.725 328.787 748.208 331.131 737.176 331.131ZM737.318 307.693C742.337 307.693 746.527 306.273 749.889 303.432C753.251 300.544 755.784 296.614 757.489 291.642C759.241 286.67 760.116 281.012 760.116 274.668C760.116 268.323 759.241 262.665 757.489 257.693C755.784 252.722 753.251 248.792 749.889 245.903C746.527 243.015 742.337 241.571 737.318 241.571C732.252 241.571 727.991 243.015 724.534 245.903C721.125 248.792 718.545 252.722 716.793 257.693C715.088 262.665 714.236 268.323 714.236 274.668C714.236 281.012 715.088 286.67 716.793 291.642C718.545 296.614 721.125 300.544 724.534 303.432C727.991 306.273 732.252 307.693 737.318 307.693ZM840.798 265.932V329H810.543V219.909H839.378V239.156H840.656C843.071 232.812 847.119 227.793 852.801 224.099C858.483 220.359 865.372 218.489 873.469 218.489C881.045 218.489 887.65 220.146 893.284 223.46C898.919 226.775 903.298 231.509 906.423 237.665C909.548 243.773 911.111 251.064 911.111 259.54V329H880.855V264.938C880.902 258.261 879.198 253.053 875.741 249.312C872.285 245.525 867.527 243.631 861.466 243.631C857.394 243.631 853.795 244.507 850.67 246.259C847.593 248.01 845.178 250.567 843.426 253.929C841.722 257.243 840.846 261.244 840.798 265.932ZM1115.48 256.273C1115.48 272.134 1112.47 285.629 1106.46 296.756C1100.49 307.883 1092.35 316.382 1082.03 322.253C1071.75 328.077 1060.2 330.989 1047.37 330.989C1034.44 330.989 1022.84 328.053 1012.57 322.182C1002.29 316.311 994.172 307.812 988.206 296.685C982.24 285.558 979.257 272.087 979.257 256.273C979.257 240.411 982.24 226.917 988.206 215.79C994.172 204.663 1002.29 196.187 1012.57 190.364C1022.84 184.492 1034.44 181.557 1047.37 181.557C1060.2 181.557 1071.75 184.492 1082.03 190.364C1092.35 196.187 1100.49 204.663 1106.46 215.79C1112.47 226.917 1115.48 240.411 1115.48 256.273ZM1084.3 256.273C1084.3 245.998 1082.76 237.333 1079.68 230.278C1076.65 223.223 1072.37 217.873 1066.83 214.227C1061.29 210.581 1054.8 208.759 1047.37 208.759C1039.93 208.759 1033.45 210.581 1027.91 214.227C1022.37 217.873 1018.06 223.223 1014.98 230.278C1011.95 237.333 1010.44 245.998 1010.44 256.273C1010.44 266.547 1011.95 275.212 1014.98 282.267C1018.06 289.322 1022.37 294.672 1027.91 298.318C1033.45 301.964 1039.93 303.787 1047.37 303.787C1054.8 303.787 1061.29 301.964 1066.83 298.318C1072.37 294.672 1076.65 289.322 1079.68 282.267C1082.76 275.212 1084.3 266.547 1084.3 256.273ZM1217.17 225.378C1216.6 219.649 1214.16 215.198 1209.85 212.026C1205.54 208.853 1199.69 207.267 1192.31 207.267C1187.29 207.267 1183.05 207.977 1179.59 209.398C1176.14 210.771 1173.49 212.688 1171.64 215.151C1169.84 217.613 1168.94 220.406 1168.94 223.531C1168.85 226.135 1169.39 228.408 1170.57 230.349C1171.81 232.291 1173.49 233.972 1175.62 235.392C1177.75 236.765 1180.21 237.973 1183 239.014C1185.8 240.009 1188.78 240.861 1191.95 241.571L1205.02 244.696C1211.37 246.116 1217.19 248.01 1222.49 250.378C1227.8 252.745 1232.39 255.657 1236.27 259.114C1240.15 262.57 1243.16 266.642 1245.29 271.33C1247.47 276.017 1248.58 281.391 1248.63 287.452C1248.58 296.353 1246.31 304.071 1241.81 310.605C1237.36 317.092 1230.92 322.134 1222.49 325.733C1214.11 329.284 1204 331.06 1192.17 331.06C1180.42 331.06 1170.2 329.26 1161.48 325.662C1152.82 322.063 1146.05 316.737 1141.17 309.682C1136.34 302.58 1133.81 293.796 1133.57 283.332H1163.33C1163.66 288.209 1165.06 292.281 1167.52 295.548C1170.03 298.768 1173.37 301.206 1177.53 302.864C1181.75 304.473 1186.51 305.278 1191.81 305.278C1197.02 305.278 1201.54 304.521 1205.38 303.006C1209.26 301.491 1212.26 299.384 1214.4 296.685C1216.53 293.986 1217.59 290.884 1217.59 287.381C1217.59 284.114 1216.62 281.367 1214.68 279.142C1212.79 276.917 1209.99 275.023 1206.3 273.46C1202.65 271.898 1198.18 270.477 1192.88 269.199L1177.04 265.222C1164.77 262.239 1155.09 257.575 1147.99 251.23C1140.89 244.885 1137.36 236.339 1137.41 225.591C1137.36 216.784 1139.7 209.09 1144.44 202.509C1149.22 195.927 1155.78 190.79 1164.11 187.097C1172.44 183.403 1181.91 181.557 1192.52 181.557C1203.32 181.557 1212.74 183.403 1220.79 187.097C1228.88 190.79 1235.18 195.927 1239.68 202.509C1244.18 209.09 1246.5 216.713 1246.64 225.378H1217.17ZM1443.94 234.469H1412.83C1412.26 230.444 1411.1 226.869 1409.35 223.744C1407.6 220.572 1405.35 217.873 1402.61 215.648C1399.86 213.422 1396.69 211.718 1393.09 210.534C1389.54 209.35 1385.68 208.759 1381.51 208.759C1373.98 208.759 1367.43 210.629 1361.84 214.369C1356.25 218.062 1351.92 223.46 1348.84 230.562C1345.76 237.617 1344.23 246.187 1344.23 256.273C1344.23 266.642 1345.76 275.354 1348.84 282.409C1351.97 289.464 1356.32 294.791 1361.91 298.389C1367.5 301.988 1373.96 303.787 1381.3 303.787C1385.42 303.787 1389.23 303.242 1392.73 302.153C1396.28 301.064 1399.43 299.478 1402.18 297.395C1404.93 295.264 1407.2 292.684 1409 289.653C1410.84 286.623 1412.12 283.167 1412.83 279.284L1443.94 279.426C1443.14 286.102 1441.12 292.542 1437.9 298.744C1434.73 304.9 1430.45 310.416 1425.05 315.293C1419.7 320.122 1413.31 323.957 1405.87 326.798C1398.49 329.592 1390.13 330.989 1380.8 330.989C1367.83 330.989 1356.23 328.053 1346 322.182C1335.82 316.311 1327.77 307.812 1321.85 296.685C1315.98 285.558 1313.05 272.087 1313.05 256.273C1313.05 240.411 1316.03 226.917 1322 215.79C1327.96 204.663 1336.06 196.187 1346.28 190.364C1356.51 184.492 1368.02 181.557 1380.8 181.557C1389.23 181.557 1397.04 182.741 1404.24 185.108C1411.48 187.475 1417.9 190.932 1423.49 195.477C1429.07 199.975 1433.62 205.491 1437.12 212.026C1440.67 218.56 1442.95 226.041 1443.94 234.469ZM1514.72 331.131C1503.68 331.131 1494.14 328.787 1486.09 324.099C1478.09 319.365 1471.91 312.783 1467.56 304.355C1463.2 295.88 1461.02 286.055 1461.02 274.881C1461.02 263.612 1463.2 253.763 1467.56 245.335C1471.91 236.86 1478.09 230.278 1486.09 225.591C1494.14 220.856 1503.68 218.489 1514.72 218.489C1525.75 218.489 1535.26 220.856 1543.27 225.591C1551.32 230.278 1557.52 236.86 1561.87 245.335C1566.23 253.763 1568.41 263.612 1568.41 274.881C1568.41 286.055 1566.23 295.88 1561.87 304.355C1557.52 312.783 1551.32 319.365 1543.27 324.099C1535.26 328.787 1525.75 331.131 1514.72 331.131ZM1514.86 307.693C1519.88 307.693 1524.07 306.273 1527.43 303.432C1530.79 300.544 1533.32 296.614 1535.03 291.642C1536.78 286.67 1537.66 281.012 1537.66 274.668C1537.66 268.323 1536.78 262.665 1535.03 257.693C1533.32 252.722 1530.79 248.792 1527.43 245.903C1524.07 243.015 1519.88 241.571 1514.86 241.571C1509.79 241.571 1505.53 243.015 1502.07 245.903C1498.66 248.792 1496.08 252.722 1494.33 257.693C1492.63 262.665 1491.77 268.323 1491.77 274.668C1491.77 281.012 1492.63 286.67 1494.33 291.642C1496.08 296.614 1498.66 300.544 1502.07 303.432C1505.53 306.273 1509.79 307.693 1514.86 307.693ZM1588.08 329V219.909H1616.92V239.156H1618.2C1620.47 232.764 1624.26 227.722 1629.56 224.028C1634.86 220.335 1641.21 218.489 1648.59 218.489C1656.07 218.489 1662.44 220.359 1667.7 224.099C1672.95 227.793 1676.46 232.812 1678.21 239.156H1679.35C1681.57 232.906 1685.6 227.911 1691.42 224.17C1697.29 220.383 1704.23 218.489 1712.23 218.489C1722.41 218.489 1730.67 221.732 1737.02 228.219C1743.41 234.658 1746.6 243.796 1746.6 255.634V329H1716.42V261.599C1716.42 255.539 1714.81 250.993 1711.59 247.963C1708.37 244.933 1704.35 243.418 1699.52 243.418C1694.02 243.418 1689.74 245.17 1686.66 248.673C1683.58 252.13 1682.04 256.699 1682.04 262.381V329H1652.71V260.96C1652.71 255.61 1651.17 251.348 1648.1 248.176C1645.07 245.004 1641.06 243.418 1636.09 243.418C1632.73 243.418 1629.7 244.27 1627 245.974C1624.35 247.632 1622.24 249.975 1620.68 253.006C1619.12 255.989 1618.34 259.492 1618.34 263.517V329H1588.08ZM1770.5 369.909V219.909H1800.33V238.233H1801.68C1803.01 235.297 1804.93 232.314 1807.44 229.284C1809.99 226.206 1813.31 223.65 1817.38 221.614C1821.5 219.53 1826.61 218.489 1832.72 218.489C1840.67 218.489 1848.01 220.572 1854.74 224.739C1861.46 228.858 1866.83 235.084 1870.86 243.418C1874.88 251.704 1876.9 262.097 1876.9 274.597C1876.9 286.765 1874.93 297.04 1871 305.42C1867.12 313.754 1861.82 320.075 1855.09 324.384C1848.42 328.645 1840.93 330.776 1832.65 330.776C1826.78 330.776 1821.78 329.805 1817.66 327.864C1813.59 325.922 1810.25 323.484 1807.65 320.548C1805.04 317.565 1803.06 314.559 1801.68 311.528H1800.76V369.909H1770.5ZM1800.12 274.455C1800.12 280.941 1801.02 286.599 1802.82 291.429C1804.62 296.259 1807.22 300.023 1810.63 302.722C1814.04 305.373 1818.18 306.699 1823.06 306.699C1827.98 306.699 1832.15 305.349 1835.56 302.651C1838.97 299.904 1841.55 296.116 1843.3 291.287C1845.1 286.41 1846 280.799 1846 274.455C1846 268.157 1845.12 262.617 1843.37 257.835C1841.62 253.053 1839.04 249.312 1835.63 246.614C1832.22 243.915 1828.03 242.565 1823.06 242.565C1818.14 242.565 1813.97 243.867 1810.56 246.472C1807.2 249.076 1804.62 252.769 1802.82 257.551C1801.02 262.333 1800.12 267.968 1800.12 274.455ZM1928.17 331.06C1921.21 331.06 1915.01 329.852 1909.57 327.438C1904.12 324.975 1899.81 321.353 1896.64 316.571C1893.51 311.741 1891.95 305.728 1891.95 298.531C1891.95 292.471 1893.07 287.381 1895.29 283.261C1897.52 279.142 1900.55 275.828 1904.38 273.318C1908.22 270.809 1912.57 268.915 1917.45 267.636C1922.37 266.358 1927.53 265.458 1932.93 264.938C1939.28 264.275 1944.39 263.659 1948.27 263.091C1952.16 262.475 1954.97 261.576 1956.73 260.392C1958.48 259.208 1959.35 257.456 1959.35 255.136V254.71C1959.35 250.212 1957.93 246.732 1955.09 244.27C1952.3 241.808 1948.32 240.577 1943.16 240.577C1937.71 240.577 1933.38 241.784 1930.16 244.199C1926.94 246.566 1924.81 249.549 1923.77 253.148L1895.79 250.875C1897.21 244.246 1900 238.517 1904.17 233.688C1908.33 228.811 1913.71 225.07 1920.29 222.466C1926.92 219.814 1934.59 218.489 1943.3 218.489C1949.36 218.489 1955.16 219.199 1960.7 220.619C1966.29 222.04 1971.24 224.241 1975.55 227.224C1979.9 230.207 1983.33 234.043 1985.84 238.73C1988.35 243.37 1989.61 248.934 1989.61 255.42V329H1960.92V313.872H1960.06C1958.31 317.281 1955.97 320.288 1953.03 322.892C1950.1 325.449 1946.57 327.461 1942.45 328.929C1938.33 330.349 1933.57 331.06 1928.17 331.06ZM1936.84 310.179C1941.29 310.179 1945.22 309.303 1948.63 307.551C1952.04 305.752 1954.71 303.337 1956.65 300.307C1958.6 297.277 1959.57 293.844 1959.57 290.009V278.432C1958.62 279.047 1957.32 279.616 1955.66 280.136C1954.05 280.61 1952.23 281.06 1950.19 281.486C1948.16 281.865 1946.12 282.22 1944.08 282.551C1942.05 282.835 1940.2 283.096 1938.54 283.332C1934.99 283.853 1931.89 284.682 1929.24 285.818C1926.59 286.955 1924.53 288.493 1923.06 290.435C1921.59 292.329 1920.86 294.696 1920.86 297.537C1920.86 301.656 1922.35 304.805 1925.33 306.983C1928.36 309.114 1932.2 310.179 1936.84 310.179ZM2043.34 265.932V329H2013.08V219.909H2041.92V239.156H2043.2C2045.61 232.812 2049.66 227.793 2055.34 224.099C2061.02 220.359 2067.91 218.489 2076.01 218.489C2083.58 218.489 2090.19 220.146 2095.82 223.46C2101.46 226.775 2105.84 231.509 2108.96 237.665C2112.09 243.773 2113.65 251.064 2113.65 259.54V329H2083.39V264.938C2083.44 258.261 2081.74 253.053 2078.28 249.312C2074.82 245.525 2070.07 243.631 2064 243.631C2059.93 243.631 2056.33 244.507 2053.21 246.259C2050.13 248.01 2047.72 250.567 2045.97 253.929C2044.26 257.243 2043.38 261.244 2043.34 265.932ZM2137.5 329V219.909H2167.75V329H2137.5ZM2152.69 205.847C2148.2 205.847 2144.34 204.355 2141.12 201.372C2137.95 198.342 2136.36 194.72 2136.36 190.506C2136.36 186.339 2137.95 182.764 2141.12 179.781C2144.34 176.751 2148.2 175.236 2152.69 175.236C2157.19 175.236 2161.03 176.751 2164.2 179.781C2167.42 182.764 2169.03 186.339 2169.03 190.506C2169.03 194.72 2167.42 198.342 2164.2 201.372C2161.03 204.355 2157.19 205.847 2152.69 205.847ZM2241.28 331.131C2230.25 331.131 2220.7 328.787 2212.66 324.099C2204.65 319.365 2198.47 312.783 2194.12 304.355C2189.76 295.88 2187.58 286.055 2187.58 274.881C2187.58 263.612 2189.76 253.763 2194.12 245.335C2198.47 236.86 2204.65 230.278 2212.66 225.591C2220.7 220.856 2230.25 218.489 2241.28 218.489C2252.31 218.489 2261.83 220.856 2269.83 225.591C2277.88 230.278 2284.08 236.86 2288.44 245.335C2292.79 253.763 2294.97 263.612 2294.97 274.881C2294.97 286.055 2292.79 295.88 2288.44 304.355C2284.08 312.783 2277.88 319.365 2269.83 324.099C2261.83 328.787 2252.31 331.131 2241.28 331.131ZM2241.42 307.693C2246.44 307.693 2250.63 306.273 2253.99 303.432C2257.35 300.544 2259.89 296.614 2261.59 291.642C2263.34 286.67 2264.22 281.012 2264.22 274.668C2264.22 268.323 2263.34 262.665 2261.59 257.693C2259.89 252.722 2257.35 248.792 2253.99 245.903C2250.63 243.015 2246.44 241.571 2241.42 241.571C2236.35 241.571 2232.09 243.015 2228.64 245.903C2225.23 248.792 2222.65 252.722 2220.89 257.693C2219.19 262.665 2218.34 268.323 2218.34 274.668C2218.34 281.012 2219.19 286.67 2220.89 291.642C2222.65 296.614 2225.23 300.544 2228.64 303.432C2232.09 306.273 2236.35 307.693 2241.42 307.693ZM2344.9 265.932V329H2314.64V219.909H2343.48V239.156H2344.76C2347.17 232.812 2351.22 227.793 2356.9 224.099C2362.58 220.359 2369.47 218.489 2377.57 218.489C2385.15 218.489 2391.75 220.146 2397.39 223.46C2403.02 226.775 2407.4 231.509 2410.52 237.665C2413.65 243.773 2415.21 251.064 2415.21 259.54V329H2384.96V264.938C2385 258.261 2383.3 253.053 2379.84 249.312C2376.39 245.525 2371.63 243.631 2365.57 243.631C2361.5 243.631 2357.9 244.507 2354.77 246.259C2351.69 248.01 2349.28 250.567 2347.53 253.929C2345.82 257.243 2344.95 261.244 2344.9 265.932Z" fill="url(#paint3_linear_1_56)"/>
<defs>
<linearGradient id="paint0_linear_1_56" x1="1240.5" y1="0" x2="1240.5" y2="512" gradientUnits="userSpaceOnUse">
<stop stop-color="#FFE7E2"/>
<stop offset="1" stop-color="white"/>
</linearGradient>
<linearGradient id="paint1_linear_1_56" x1="255.5" y1="67" x2="255.5" y2="444" gradientUnits="userSpaceOnUse">
<stop stop-color="#FF7347" stop-opacity="0.15"/>
<stop offset="1" stop-color="#FFC700" stop-opacity="0.17"/>
</linearGradient>
<linearGradient id="paint2_linear_1_56" x1="256" y1="117" x2="256" y2="395" gradientUnits="userSpaceOnUse">
<stop stop-color="#FF7347"/>
<stop offset="1" stop-color="#FFC700"/>
</linearGradient>
<linearGradient id="paint3_linear_1_56" x1="1485" y1="135" x2="1485" y2="377" gradientUnits="userSpaceOnUse">
<stop stop-color="#FF7347"/>
<stop offset="1" stop-color="#FFC700"/>
</linearGradient>
</defs>
</svg>
